ffmpeg started on 2025-07-20 at 12:39:27
Report written to "D:\Convert\FFMetrics\reports\ssim_report-6.txt"
Log level: 32
Command line:
ffmpeg -hide_banner -nostdin -i "G:\\\xc0\xed\xe8\xec\xe5\\\xce\xed\xe3\xee\xe8\xed\xe3\xe8\\!_10_\xc2\xe5\xf1\xed\xe0_2018\\\xcf\xee\xf2\xe5\xf0\xff\xed\xed\xe0\xff \xef\xe5\xf1\xed\xff\\[SHIZA Project] Lost Song ONA [10] [MVO]_HEVC.mkv" -i "G:\\\xc0\xed\xe8\xec\xe5\\\xce\xed\xe3\xee\xe8\xed\xe3\xe8\\!_10_\xc2\xe5\xf1\xed\xe0_2018\\\xcf\xee\xf2\xe5\xf0\xff\xed\xed\xe0\xff \xef\xe5\xf1\xed\xff\\[SHIZA Project] Lost Song ONA [10] [MVO].mkv" -lavfi "[0:v]settb=AVTB,setpts=PTS-STARTPTS,format=pix_fmts=yuv420p10,fps=24000/1001,scale=1280:720:flags=bicubic[main];[1:v]settb=AVTB,setpts=PTS-STARTPTS,format=pix_fmts=yuv420p,fps=24000/1001,scale=1280:720:flags=bicubic[ref];[main][ref]ssim=eof_action=endall:stats_file='D\\:/Convert/FFMetrics/logs/ssim_logfile-6.txt'" -f null -
Input #0, matroska,webm, from 'G:\Аниме\Онгоинги\!_10_Весна_2018\Потерянная песня\[SHIZA Project] Lost Song ONA [10] [MVO]_HEVC.mkv':
  Metadata:
    ENCODER         : Lavf61.7.100
  Duration: 00:23:57.14, start: -0.021000, bitrate: 572 kb/s
  Stream #0:0(rus): Video: hevc (Main 10), yuv420p10le(tv, bt709, progressive), 1280x720 [SAR 1:1 DAR 16:9], 23.98 fps, 23.98 tbr, 1k tbn (default)
      Metadata:
        title           : www.SHIZA-Project.com
        ENCODER         : Lavc61.19.100 libx265
        BPS             : 376937
        DURATION        : 00:23:57.102708333
        NUMBER_OF_FRAMES: 34456
        NUMBER_OF_BYTES : 67712240
        _STATISTICS_WRITING_APP: mkvpropedit v66.0.0 ('Josie') 64-bit
        _STATISTICS_WRITING_DATE_UTC: 2025-07-19 13:38:29
        _STATISTICS_TAGS: BPS DURATION NUMBER_OF_FRAMES NUMBER_OF_BYTES
  Stream #0:1(rus): Audio: aac (LC), 48000 Hz, stereo, fltp (default)
      Metadata:
        title           : SHIZA Project MVO
        ENCODER         : Lavc61.19.100 aac
        BPS             : 191906
        DURATION        : 00:23:57.120000000
        NUMBER_OF_FRAMES: 67366
        NUMBER_OF_BYTES : 34474016
        _STATISTICS_WRITING_APP: mkvpropedit v66.0.0 ('Josie') 64-bit
        _STATISTICS_WRITING_DATE_UTC: 2025-07-19 13:38:29
        _STATISTICS_TAGS: BPS DURATION NUMBER_OF_FRAMES NUMBER_OF_BYTES
  Stream #0:2(rus): Subtitle: ass (ssa) (default)
      Metadata:
        BPS             : 16
        DURATION        : 00:09:50.050000000
        NUMBER_OF_FRAMES: 12
        NUMBER_OF_BYTES : 1188
        _STATISTICS_WRITING_APP: mkvpropedit v66.0.0 ('Josie') 64-bit
        _STATISTICS_WRITING_DATE_UTC: 2025-07-19 13:38:29
        _STATISTICS_TAGS: BPS DURATION NUMBER_OF_FRAMES NUMBER_OF_BYTES
Input #1, matroska,webm, from 'G:\Аниме\Онгоинги\!_10_Весна_2018\Потерянная песня\[SHIZA Project] Lost Song ONA [10] [MVO].mkv':
  Metadata:
    encoder         : libebml v1.3.1 + libmatroska v1.4.2
    creation_time   : 2018-07-23T21:56:50.000000Z
  Duration: 00:23:57.12, start: 0.000000, bitrate: 1589 kb/s
  Stream #1:0(rus): Video: h264 (Main), yuv420p(progressive), 1280x720 [SAR 1:1 DAR 16:9], 23.98 fps, 23.98 tbr, 1k tbn (default)
      Metadata:
        title           : www.SHIZA-Project.com
        BPS             : 1395057
        BPS-eng         : 1395057
        DURATION        : 00:23:57.103000000
        DURATION-eng    : 00:23:57.103000000
        NUMBER_OF_FRAMES: 34456
        NUMBER_OF_FRAMES-eng: 34456
        NUMBER_OF_BYTES : 250605254
        NUMBER_OF_BYTES-eng: 250605254
        _STATISTICS_WRITING_APP: mkvmerge v7.8.0 ('River Man') 32bit built on Mar 27 2015 16:18:02
        _STATISTICS_WRITING_APP-eng: mkvmerge v7.8.0 ('River Man') 32bit built on Mar 27 2015 16:18:02
        _STATISTICS_WRITING_DATE_UTC: 2018-07-23 21:56:50
        _STATISTICS_WRITING_DATE_UTC-eng: 2018-07-23 21:56:50
        _STATISTICS_TAGS: BPS DURATION NUMBER_OF_FRAMES NUMBER_OF_BYTES
        _STATISTICS_TAGS-eng: BPS DURATION NUMBER_OF_FRAMES NUMBER_OF_BYTES
  Stream #1:1(rus): Audio: aac (LC), 48000 Hz, stereo, fltp (default)
      Metadata:
        title           : SHIZA Project MVO
        BPS             : 191999
        BPS-eng         : 191999
        DURATION        : 00:23:57.120000000
        DURATION-eng    : 00:23:57.120000000
        NUMBER_OF_FRAMES: 67365
        NUMBER_OF_FRAMES-eng: 67365
        NUMBER_OF_BYTES : 34490793
        NUMBER_OF_BYTES-eng: 34490793
        _STATISTICS_WRITING_APP: mkvmerge v7.8.0 ('River Man') 32bit built on Mar 27 2015 16:18:02
        _STATISTICS_WRITING_APP-eng: mkvmerge v7.8.0 ('River Man') 32bit built on Mar 27 2015 16:18:02
        _STATISTICS_WRITING_DATE_UTC: 2018-07-23 21:56:50
        _STATISTICS_WRITING_DATE_UTC-eng: 2018-07-23 21:56:50
        _STATISTICS_TAGS: BPS DURATION NUMBER_OF_FRAMES NUMBER_OF_BYTES
        _STATISTICS_TAGS-eng: BPS DURATION NUMBER_OF_FRAMES NUMBER_OF_BYTES
  Stream #1:2(rus): Subtitle: ass (ssa) (default)
      Metadata:
        BPS             : 16
        BPS-eng         : 16
        DURATION        : 00:09:50.050000000
        DURATION-eng    : 00:09:50.050000000
        NUMBER_OF_FRAMES: 12
        NUMBER_OF_FRAMES-eng: 12
        NUMBER_OF_BYTES : 1188
        NUMBER_OF_BYTES-eng: 1188
        _STATISTICS_WRITING_APP: mkvmerge v7.8.0 ('River Man') 32bit built on Mar 27 2015 16:18:02
        _STATISTICS_WRITING_APP-eng: mkvmerge v7.8.0 ('River Man') 32bit built on Mar 27 2015 16:18:02
        _STATISTICS_WRITING_DATE_UTC: 2018-07-23 21:56:50
        _STATISTICS_WRITING_DATE_UTC-eng: 2018-07-23 21:56:50
        _STATISTICS_TAGS: BPS DURATION NUMBER_OF_FRAMES NUMBER_OF_BYTES
        _STATISTICS_TAGS-eng: BPS DURATION NUMBER_OF_FRAMES NUMBER_OF_BYTES
Stream mapping:
  Stream #0:0 (hevc) -> settb:default
  Stream #1:0 (h264) -> settb:default
  ssim:default -> Stream #0:0 (wrapped_avframe)
  Stream #0:1 -> #0:1 (aac (native) -> pcm_s16le (native))
[swscaler @ 0000022d29e33a40] No accelerated colorspace conversion found from yuv420p to bgr48le.
[swscaler @ 0000022d2a00bc00] No accelerated colorspace conversion found from yuv420p to bgr48le.
[swscaler @ 0000022d2a0f32c0] No accelerated colorspace conversion found from yuv420p to bgr48le.
[swscaler @ 0000022d2a154d00] No accelerated colorspace conversion found from yuv420p to bgr48le.
[swscaler @ 0000022d2a1c0e80] No accelerated colorspace conversion found from yuv420p to bgr48le.
[swscaler @ 0000022d2a243bc0] No accelerated colorspace conversion found from yuv420p to bgr48le.
[swscaler @ 0000022d2a2a9040] No accelerated colorspace conversion found from yuv420p to bgr48le.
[swscaler @ 0000022d2a316040] No accelerated colorspace conversion found from yuv420p to bgr48le.
[swscaler @ 0000022d2a37a040] No accelerated colorspace conversion found from yuv420p to bgr48le.
[swscaler @ 0000022d2a407040] No accelerated colorspace conversion found from yuv420p to bgr48le.
[swscaler @ 0000022d2a473040] No accelerated colorspace conversion found from yuv420p to bgr48le.
[swscaler @ 0000022d2a4de040] No accelerated colorspace conversion found from yuv420p to bgr48le.
[swscaler @ 0000022d2a54c040] No accelerated colorspace conversion found from yuv420p to bgr48le.
[swscaler @ 0000022d2a5dc040] No accelerated colorspace conversion found from yuv420p to bgr48le.
[swscaler @ 0000022d2a63f040] No accelerated colorspace conversion found from yuv420p to bgr48le.
[swscaler @ 0000022d2a6ad040] No accelerated colorspace conversion found from yuv420p to bgr48le.
Output #0, null, to 'pipe:':
  Metadata:
    encoder         : Lavf61.7.100
  Stream #0:0: Video: wrapped_avframe, yuv420p10le(tv, bt709, progressive), 1280x720 [SAR 1:1 DAR 16:9], q=2-31, 200 kb/s, 23.98 fps, 23.98 tbn
      Metadata:
        encoder         : Lavc61.19.100 wrapped_avframe
  Stream #0:1(rus): Audio: pcm_s16le, 48000 Hz, stereo, s16, 1536 kb/s (default)
      Metadata:
        title           : SHIZA Project MVO
        _STATISTICS_TAGS: BPS DURATION NUMBER_OF_FRAMES NUMBER_OF_BYTES
        BPS             : 191906
        DURATION        : 00:23:57.120000000
        NUMBER_OF_FRAMES: 67366
        NUMBER_OF_BYTES : 34474016
        _STATISTICS_WRITING_APP: mkvpropedit v66.0.0 ('Josie') 64-bit
        _STATISTICS_WRITING_DATE_UTC: 2025-07-19 13:38:29
        encoder         : Lavc61.19.100 pcm_s16le
frame=   77 fps=0.0 q=-0.0 size=N/A time=00:00:03.21 bitrate=N/A speed=6.32x    frame=  173 fps=168 q=-0.0 size=N/A time=00:00:07.21 bitrate=N/A speed=6.99x    frame=  250 fps=163 q=-0.0 size=N/A time=00:00:10.42 bitrate=N/A speed=6.78x    frame=  343 fps=166 q=-0.0 size=N/A time=00:00:14.30 bitrate=N/A speed=6.94x    frame=  422 fps=164 q=-0.0 size=N/A time=00:00:17.60 bitrate=N/A speed=6.86x    frame=  520 fps=168 q=-0.0 size=N/A time=00:00:21.68 bitrate=N/A speed=7.01x    frame=  609 fps=169 q=-0.0 size=N/A time=00:00:25.40 bitrate=N/A speed=7.05x    frame=  700 fps=170 q=-0.0 size=N/A time=00:00:29.19 bitrate=N/A speed=7.08x    frame=  790 fps=171 q=-0.0 size=N/A time=00:00:32.94 bitrate=N/A speed=7.12x    frame=  887 fps=172 q=-0.0 size=N/A time=00:00:36.99 bitrate=N/A speed=7.18x    frame=  975 fps=172 q=-0.0 size=N/A time=00:00:40.66 bitrate=N/A speed=7.17x    frame= 1070 fps=173 q=-0.0 size=N/A time=00:00:44.62 bitrate=N/A speed=7.22x    frame= 1165 fps=174 q=-0.0 size=N/A time=00:00:48.59 bitrate=N/A speed=7.25x    frame= 1263 fps=175 q=-0.0 size=N/A time=00:00:52.67 bitrate=N/A speed=7.31x    frame= 1361 fps=176 q=-0.0 size=N/A time=00:00:56.76 bitrate=N/A speed=7.34x    frame= 1451 fps=176 q=-0.0 size=N/A time=00:01:00.51 bitrate=N/A speed=7.33x    frame= 1553 fps=177 q=-0.0 size=N/A time=00:01:04.77 bitrate=N/A speed= 7.4x    frame= 1643 fps=177 q=-0.0 size=N/A time=00:01:08.52 bitrate=N/A speed=7.38x    frame= 1726 fps=176 q=-0.0 size=N/A time=00:01:11.98 bitrate=N/A speed=7.35x    frame= 1810 fps=176 q=-0.0 size=N/A time=00:01:15.49 bitrate=N/A speed=7.32x    frame= 1897 fps=175 q=-0.0 size=N/A time=00:01:19.12 bitrate=N/A speed=7.31x    frame= 1984 fps=175 q=-0.0 size=N/A time=00:01:22.74 bitrate=N/A speed= 7.3x    frame= 2072 fps=175 q=-0.0 size=N/A time=00:01:26.41 bitrate=N/A speed=7.29x    frame= 2166 fps=175 q=-0.0 size=N/A time=00:01:30.34 bitrate=N/A speed= 7.3x    frame= 2260 fps=175 q=-0.0 size=N/A time=00:01:34.26 bitrate=N/A speed=7.32x    frame= 2358 fps=176 q=-0.0 size=N/A time=00:01:38.34 bitrate=N/A speed=7.34x    frame= 2452 fps=176 q=-0.0 size=N/A time=00:01:42.26 bitrate=N/A speed=7.35x    frame= 2549 fps=177 q=-0.0 size=N/A time=00:01:46.31 bitrate=N/A speed=7.37x    frame= 2642 fps=177 q=-0.0 size=N/A time=00:01:50.19 bitrate=N/A speed=7.37x    frame= 2739 fps=177 q=-0.0 size=N/A time=00:01:54.23 bitrate=N/A speed=7.39x    frame= 2837 fps=178 q=-0.0 size=N/A time=00:01:58.32 bitrate=N/A speed=7.41x    frame= 2924 fps=177 q=-0.0 size=N/A time=00:02:01.95 bitrate=N/A speed=7.39x    frame= 3023 fps=178 q=-0.0 size=N/A time=00:02:06.08 bitrate=N/A speed=7.41x    frame= 3116 fps=178 q=-0.0 size=N/A time=00:02:09.96 bitrate=N/A speed=7.42x    frame= 3205 fps=178 q=-0.0 size=N/A time=00:02:13.67 bitrate=N/A speed=7.41x    frame= 3295 fps=178 q=-0.0 size=N/A time=00:02:17.42 bitrate=N/A speed=7.41x    frame= 3390 fps=178 q=-0.0 size=N/A time=00:02:21.39 bitrate=N/A speed=7.41x    frame= 3476 fps=177 q=-0.0 size=N/A time=00:02:24.97 bitrate=N/A speed= 7.4x    frame= 3566 fps=177 q=-0.0 size=N/A time=00:02:28.73 bitrate=N/A speed= 7.4x    frame= 3664 fps=178 q=-0.0 size=N/A time=00:02:32.81 bitrate=N/A speed=7.41x    frame= 3747 fps=177 q=-0.0 size=N/A time=00:02:36.28 bitrate=N/A speed=7.39x    frame= 3838 fps=177 q=-0.0 size=N/A time=00:02:40.07 bitrate=N/A speed=7.39x    frame= 3920 fps=177 q=-0.0 size=N/A time=00:02:43.49 bitrate=N/A speed=7.38x    frame= 4004 fps=177 q=-0.0 size=N/A time=00:02:47.00 bitrate=N/A speed=7.36x    frame= 4093 fps=176 q=-0.0 size=N/A time=00:02:50.71 bitrate=N/A speed=7.36x    frame= 4182 fps=176 q=-0.0 size=N/A time=00:02:54.42 bitrate=N/A speed=7.36x    frame= 4273 fps=176 q=-0.0 size=N/A time=00:02:58.21 bitrate=N/A speed=7.35x    frame= 4363 fps=176 q=-0.0 size=N/A time=00:03:01.97 bitrate=N/A speed=7.35x    frame= 4460 fps=177 q=-0.0 size=N/A time=00:03:06.01 bitrate=N/A speed=7.36x    frame= 4554 fps=177 q=-0.0 size=N/A time=00:03:09.93 bitrate=N/A speed=7.37x    frame= 4644 fps=177 q=-0.0 size=N/A time=00:03:13.69 bitrate=N/A speed=7.37x    frame= 4736 fps=177 q=-0.0 size=N/A time=00:03:17.53 bitrate=N/A speed=7.37x    frame= 4829 fps=177 q=-0.0 size=N/A time=00:03:21.40 bitrate=N/A speed=7.37x    frame= 4911 fps=176 q=-0.0 size=N/A time=00:03:24.82 bitrate=N/A speed=7.36x    frame= 5001 fps=176 q=-0.0 size=N/A time=00:03:28.58 bitrate=N/A speed=7.35x    frame= 5094 fps=176 q=-0.0 size=N/A time=00:03:32.46 bitrate=N/A speed=7.36x    frame= 5181 fps=176 q=-0.0 size=N/A time=00:03:36.09 bitrate=N/A speed=7.35x    frame= 5262 fps=176 q=-0.0 size=N/A time=00:03:39.46 bitrate=N/A speed=7.34x    frame= 5348 fps=176 q=-0.0 size=N/A time=00:03:43.05 bitrate=N/A speed=7.33x    frame= 5437 fps=176 q=-0.0 size=N/A time=00:03:46.76 bitrate=N/A speed=7.33x    frame= 5529 fps=176 q=-0.0 size=N/A time=00:03:50.60 bitrate=N/A speed=7.33x    frame= 5617 fps=176 q=-0.0 size=N/A time=00:03:54.27 bitrate=N/A speed=7.32x    frame= 5710 fps=176 q=-0.0 size=N/A time=00:03:58.15 bitrate=N/A speed=7.33x    frame= 5802 fps=176 q=-0.0 size=N/A time=00:04:01.99 bitrate=N/A speed=7.33x    frame= 5902 fps=176 q=-0.0 size=N/A time=00:04:06.16 bitrate=N/A speed=7.34x    frame= 5994 fps=176 q=-0.0 size=N/A time=00:04:09.99 bitrate=N/A speed=7.34x    frame= 6089 fps=176 q=-0.0 size=N/A time=00:04:13.96 bitrate=N/A speed=7.35x    frame= 6177 fps=176 q=-0.0 size=N/A time=00:04:17.63 bitrate=N/A speed=7.35x    frame= 6281 fps=176 q=-0.0 size=N/A time=00:04:21.97 bitrate=N/A speed=7.36x    frame= 6367 fps=176 q=-0.0 size=N/A time=00:04:25.55 bitrate=N/A speed=7.35x    frame= 6474 fps=177 q=-0.0 size=N/A time=00:04:30.01 bitrate=N/A speed=7.37x    frame= 6559 fps=177 q=-0.0 size=N/A time=00:04:33.56 bitrate=N/A speed=7.37x    frame= 6658 fps=177 q=-0.0 size=N/A time=00:04:37.69 bitrate=N/A speed=7.37x    frame= 6755 fps=177 q=-0.0 size=N/A time=00:04:41.73 bitrate=N/A speed=7.38x    frame= 6846 fps=177 q=-0.0 size=N/A time=00:04:45.53 bitrate=N/A speed=7.38x    frame= 6936 fps=177 q=-0.0 size=N/A time=00:04:49.28 bitrate=N/A speed=7.38x    frame= 7026 fps=177 q=-0.0 size=N/A time=00:04:53.04 bitrate=N/A speed=7.38x    frame= 7114 fps=177 q=-0.0 size=N/A time=00:04:56.71 bitrate=N/A speed=7.37x    frame= 7202 fps=177 q=-0.0 size=N/A time=00:05:00.38 bitrate=N/A speed=7.37x    frame= 7294 fps=177 q=-0.0 size=N/A time=00:05:04.22 bitrate=N/A speed=7.37x    frame= 7379 fps=177 q=-0.0 size=N/A time=00:05:07.76 bitrate=N/A speed=7.37x    frame= 7468 fps=177 q=-0.0 size=N/A time=00:05:11.47 bitrate=N/A speed=7.36x    frame= 7557 fps=177 q=-0.0 size=N/A time=00:05:15.18 bitrate=N/A speed=7.36x    frame= 7657 fps=177 q=-0.0 size=N/A time=00:05:19.36 bitrate=N/A speed=7.37x    frame= 7751 fps=177 q=-0.0 size=N/A time=00:05:23.28 bitrate=N/A speed=7.37x    frame= 7846 fps=177 q=-0.0 size=N/A time=00:05:27.24 bitrate=N/A speed=7.38x    frame= 7950 fps=177 q=-0.0 size=N/A time=00:05:31.58 bitrate=N/A speed=7.39x    frame= 8046 fps=177 q=-0.0 size=N/A time=00:05:35.58 bitrate=N/A speed= 7.4x    frame= 8137 fps=177 q=-0.0 size=N/A time=00:05:39.38 bitrate=N/A speed=7.39x    frame= 8225 fps=177 q=-0.0 size=N/A time=00:05:43.05 bitrate=N/A speed=7.39x    frame= 8322 fps=177 q=-0.0 size=N/A time=00:05:47.09 bitrate=N/A speed= 7.4x    frame= 8412 fps=177 q=-0.0 size=N/A time=00:05:50.85 bitrate=N/A speed= 7.4x    frame= 8512 fps=177 q=-0.0 size=N/A time=00:05:55.02 bitrate=N/A speed= 7.4x    frame= 8609 fps=178 q=-0.0 size=N/A time=00:05:59.06 bitrate=N/A speed=7.41x    frame= 8706 fps=178 q=-0.0 size=N/A time=00:06:03.11 bitrate=N/A speed=7.41x    frame= 8806 fps=178 q=-0.0 size=N/A time=00:06:07.28 bitrate=N/A speed=7.42x    frame= 8899 fps=178 q=-0.0 size=N/A time=00:06:11.16 bitrate=N/A speed=7.42x    frame= 8999 fps=178 q=-0.0 size=N/A time=00:06:15.33 bitrate=N/A speed=7.43x    frame= 9095 fps=178 q=-0.0 size=N/A time=00:06:19.33 bitrate=N/A speed=7.43x    frame= 9186 fps=178 q=-0.0 size=N/A time=00:06:23.13 bitrate=N/A speed=7.43x    frame= 9288 fps=178 q=-0.0 size=N/A time=00:06:27.38 bitrate=N/A speed=7.44x    frame= 9377 fps=178 q=-0.0 size=N/A time=00:06:31.09 bitrate=N/A speed=7.44x    frame= 9477 fps=178 q=-0.0 size=N/A time=00:06:35.26 bitrate=N/A speed=7.44x    frame= 9586 fps=179 q=-0.0 size=N/A time=00:06:39.81 bitrate=N/A speed=7.45x    frame= 9683 fps=179 q=-0.0 size=N/A time=00:06:43.86 bitrate=N/A speed=7.46x    frame= 9782 fps=179 q=-0.0 size=N/A time=00:06:47.99 bitrate=N/A speed=7.46x    frame= 9877 fps=179 q=-0.0 size=N/A time=00:06:51.95 bitrate=N/A speed=7.46x    frame= 9970 fps=179 q=-0.0 size=N/A time=00:06:55.83 bitrate=N/A speed=7.47x    frame=10060 fps=179 q=-0.0 size=N/A time=00:06:59.58 bitrate=N/A speed=7.46x    frame=10161 fps=179 q=-0.0 size=N/A time=00:07:03.79 bitrate=N/A speed=7.47x    frame=10265 fps=179 q=-0.0 size=N/A time=00:07:08.13 bitrate=N/A speed=7.48x    frame=10349 fps=179 q=-0.0 size=N/A time=00:07:11.63 bitrate=N/A speed=7.47x    frame=10460 fps=179 q=-0.0 size=N/A time=00:07:16.26 bitrate=N/A speed=7.49x    frame=10553 fps=179 q=-0.0 size=N/A time=00:07:20.14 bitrate=N/A speed=7.49x    frame=10654 fps=180 q=-0.0 size=N/A time=00:07:24.36 bitrate=N/A speed=7.49x    frame=10747 fps=180 q=-0.0 size=N/A time=00:07:28.23 bitrate=N/A speed=7.49x    frame=10842 fps=180 q=-0.0 size=N/A time=00:07:32.20 bitrate=N/A speed=7.49x    frame=10928 fps=180 q=-0.0 size=N/A time=00:07:35.78 bitrate=N/A speed=7.49x    frame=11030 fps=180 q=-0.0 size=N/A time=00:07:40.04 bitrate=N/A speed= 7.5x    frame=11114 fps=180 q=-0.0 size=N/A time=00:07:43.54 bitrate=N/A speed=7.49x    frame=11223 fps=180 q=-0.0 size=N/A time=00:07:48.09 bitrate=N/A speed= 7.5x    frame=11318 fps=180 q=-0.0 size=N/A time=00:07:52.05 bitrate=N/A speed= 7.5x    frame=11411 fps=180 q=-0.0 size=N/A time=00:07:55.93 bitrate=N/A speed= 7.5x    frame=11510 fps=180 q=-0.0 size=N/A time=00:08:00.06 bitrate=N/A speed=7.51x    frame=11613 fps=180 q=-0.0 size=N/A time=00:08:04.35 bitrate=N/A speed=7.51x    frame=11716 fps=180 q=-0.0 size=N/A time=00:08:08.65 bitrate=N/A speed=7.52x    frame=11807 fps=180 q=-0.0 size=N/A time=00:08:12.45 bitrate=N/A speed=7.52x    frame=11904 fps=180 q=-0.0 size=N/A time=00:08:16.49 bitrate=N/A speed=7.52x    frame=12001 fps=180 q=-0.0 size=N/A time=00:08:20.54 bitrate=N/A speed=7.52x    frame=12107 fps=181 q=-0.0 size=N/A time=00:08:24.96 bitrate=N/A speed=7.53x    frame=12210 fps=181 q=-0.0 size=N/A time=00:08:29.25 bitrate=N/A speed=7.54x    frame=12313 fps=181 q=-0.0 size=N/A time=00:08:33.55 bitrate=N/A speed=7.54x    frame=12399 fps=181 q=-0.0 size=N/A time=00:08:37.14 bitrate=N/A speed=7.54x    frame=12513 fps=181 q=-0.0 size=N/A time=00:08:41.89 bitrate=N/A speed=7.55x    frame=12604 fps=181 q=-0.0 size=N/A time=00:08:45.69 bitrate=N/A speed=7.55x    frame=12710 fps=181 q=-0.0 size=N/A time=00:08:50.11 bitrate=N/A speed=7.56x    frame=12820 fps=181 q=-0.0 size=N/A time=00:08:54.70 bitrate=N/A speed=7.57x    frame=12912 fps=181 q=-0.0 size=N/A time=00:08:58.53 bitrate=N/A speed=7.57x    frame=13014 fps=182 q=-0.0 size=N/A time=00:09:02.79 bitrate=N/A speed=7.57x    frame=13103 fps=181 q=-0.0 size=N/A time=00:09:06.50 bitrate=N/A speed=7.57x    frame=13188 fps=181 q=-0.0 size=N/A time=00:09:10.04 bitrate=N/A speed=7.56x    frame=13289 fps=181 q=-0.0 size=N/A time=00:09:14.26 bitrate=N/A speed=7.57x    frame=13385 fps=182 q=-0.0 size=N/A time=00:09:18.26 bitrate=N/A speed=7.57x    frame=13488 fps=182 q=-0.0 size=N/A time=00:09:22.56 bitrate=N/A speed=7.58x    frame=13579 fps=182 q=-0.0 size=N/A time=00:09:26.35 bitrate=N/A speed=7.57x    frame=13680 fps=182 q=-0.0 size=N/A time=00:09:30.57 bitrate=N/A speed=7.58x    frame=13780 fps=182 q=-0.0 size=N/A time=00:09:34.74 bitrate=N/A speed=7.58x    frame=13882 fps=182 q=-0.0 size=N/A time=00:09:38.99 bitrate=N/A speed=7.59x    frame=13975 fps=182 q=-0.0 size=N/A time=00:09:42.87 bitrate=N/A speed=7.59x    frame=14079 fps=182 q=-0.0 size=N/A time=00:09:47.21 bitrate=N/A speed=7.59x    frame=14189 fps=182 q=-0.0 size=N/A time=00:09:51.79 bitrate=N/A speed= 7.6x    frame=14283 fps=182 q=-0.0 size=N/A time=00:09:55.72 bitrate=N/A speed= 7.6x    frame=14385 fps=182 q=-0.0 size=N/A time=00:09:59.97 bitrate=N/A speed= 7.6x    frame=14484 fps=182 q=-0.0 size=N/A time=00:10:04.10 bitrate=N/A speed=7.61x    frame=14581 fps=182 q=-0.0 size=N/A time=00:10:08.14 bitrate=N/A speed=7.61x    frame=14677 fps=182 q=-0.0 size=N/A time=00:10:12.15 bitrate=N/A speed=7.61x    frame=14773 fps=182 q=-0.0 size=N/A time=00:10:16.15 bitrate=N/A speed=7.61x    frame=14878 fps=183 q=-0.0 size=N/A time=00:10:20.53 bitrate=N/A speed=7.62x    frame=14975 fps=183 q=-0.0 size=N/A time=00:10:24.58 bitrate=N/A speed=7.62x    frame=15070 fps=183 q=-0.0 size=N/A time=00:10:28.54 bitrate=N/A speed=7.62x    frame=15167 fps=183 q=-0.0 size=N/A time=00:10:32.59 bitrate=N/A speed=7.62x    frame=15259 fps=183 q=-0.0 size=N/A time=00:10:36.42 bitrate=N/A speed=7.62x    frame=15345 fps=183 q=-0.0 size=N/A time=00:10:40.01 bitrate=N/A speed=7.61x    frame=15436 fps=183 q=-0.0 size=N/A time=00:10:43.80 bitrate=N/A speed=7.61x    frame=15535 fps=183 q=-0.0 size=N/A time=00:10:47.93 bitrate=N/A speed=7.61x    frame=15628 fps=183 q=-0.0 size=N/A time=00:10:51.81 bitrate=N/A speed=7.61x    frame=15712 fps=182 q=-0.0 size=N/A time=00:10:55.32 bitrate=N/A speed=7.61x    frame=15795 fps=182 q=-0.0 size=N/A time=00:10:58.78 bitrate=N/A speed= 7.6x    frame=15883 fps=182 q=-0.0 size=N/A time=00:11:02.45 bitrate=N/A speed= 7.6x    frame=15963 fps=182 q=-0.0 size=N/A time=00:11:05.79 bitrate=N/A speed=7.59x    frame=16050 fps=182 q=-0.0 size=N/A time=00:11:09.41 bitrate=N/A speed=7.59x    frame=16141 fps=182 q=-0.0 size=N/A time=00:11:13.21 bitrate=N/A speed=7.59x    frame=16238 fps=182 q=-0.0 size=N/A time=00:11:17.25 bitrate=N/A speed=7.59x    frame=16322 fps=182 q=-0.0 size=N/A time=00:11:20.76 bitrate=N/A speed=7.59x    frame=16420 fps=182 q=-0.0 size=N/A time=00:11:24.85 bitrate=N/A speed=7.59x    frame=16505 fps=182 q=-0.0 size=N/A time=00:11:28.39 bitrate=N/A speed=7.58x    frame=16588 fps=182 q=-0.0 size=N/A time=00:11:31.85 bitrate=N/A speed=7.58x    frame=16660 fps=181 q=-0.0 size=N/A time=00:11:34.86 bitrate=N/A speed=7.57x    frame=16767 fps=182 q=-0.0 size=N/A time=00:11:39.32 bitrate=N/A speed=7.58x    frame=16857 fps=182 q=-0.0 size=N/A time=00:11:43.07 bitrate=N/A speed=7.57x    frame=16944 fps=182 q=-0.0 size=N/A time=00:11:46.70 bitrate=N/A speed=7.57x    frame=17034 fps=181 q=-0.0 size=N/A time=00:11:50.45 bitrate=N/A speed=7.57x    frame=17118 fps=181 q=-0.0 size=N/A time=00:11:53.96 bitrate=N/A speed=7.57x    frame=17212 fps=181 q=-0.0 size=N/A time=00:11:57.88 bitrate=N/A speed=7.57x    frame=17298 fps=181 q=-0.0 size=N/A time=00:12:01.47 bitrate=N/A speed=7.56x    frame=17389 fps=181 q=-0.0 size=N/A time=00:12:05.26 bitrate=N/A speed=7.56x    frame=17480 fps=181 q=-0.0 size=N/A time=00:12:09.06 bitrate=N/A speed=7.56x    frame=17566 fps=181 q=-0.0 size=N/A time=00:12:12.64 bitrate=N/A speed=7.56x    frame=17641 fps=181 q=-0.0 size=N/A time=00:12:15.77 bitrate=N/A speed=7.55x    frame=17736 fps=181 q=-0.0 size=N/A time=00:12:19.73 bitrate=N/A speed=7.55x    frame=17819 fps=181 q=-0.0 size=N/A time=00:12:23.20 bitrate=N/A speed=7.55x    frame=17905 fps=181 q=-0.0 size=N/A time=00:12:26.78 bitrate=N/A speed=7.54x    frame=17989 fps=181 q=-0.0 size=N/A time=00:12:30.29 bitrate=N/A speed=7.54x    frame=18081 fps=181 q=-0.0 size=N/A time=00:12:34.12 bitrate=N/A speed=7.54x    frame=18175 fps=181 q=-0.0 size=N/A time=00:12:38.04 bitrate=N/A speed=7.54x    frame=18270 fps=181 q=-0.0 size=N/A time=00:12:42.01 bitrate=N/A speed=7.54x    frame=18356 fps=181 q=-0.0 size=N/A time=00:12:45.59 bitrate=N/A speed=7.54x    frame=18440 fps=181 q=-0.0 size=N/A time=00:12:49.10 bitrate=N/A speed=7.53x    frame=18525 fps=181 q=-0.0 size=N/A time=00:12:52.64 bitrate=N/A speed=7.53x    frame=18610 fps=180 q=-0.0 size=N/A time=00:12:56.19 bitrate=N/A speed=7.53x    frame=18697 fps=180 q=-0.0 size=N/A time=00:12:59.82 bitrate=N/A speed=7.52x    frame=18787 fps=180 q=-0.0 size=N/A time=00:13:03.57 bitrate=N/A speed=7.52x    frame=18876 fps=180 q=-0.0 size=N/A time=00:13:07.28 bitrate=N/A speed=7.52x    frame=18961 fps=180 q=-0.0 size=N/A time=00:13:10.83 bitrate=N/A speed=7.52x    frame=19057 fps=180 q=-0.0 size=N/A time=00:13:14.83 bitrate=N/A speed=7.52x    frame=19150 fps=180 q=-0.0 size=N/A time=00:13:18.71 bitrate=N/A speed=7.52x    frame=19241 fps=180 q=-0.0 size=N/A time=00:13:22.51 bitrate=N/A speed=7.52x    frame=19342 fps=180 q=-0.0 size=N/A time=00:13:26.72 bitrate=N/A speed=7.52x    frame=19431 fps=180 q=-0.0 size=N/A time=00:13:30.43 bitrate=N/A speed=7.52x    frame=19516 fps=180 q=-0.0 size=N/A time=00:13:33.97 bitrate=N/A speed=7.52x    frame=19606 fps=180 q=-0.0 size=N/A time=00:13:37.73 bitrate=N/A speed=7.52x    frame=19696 fps=180 q=-0.0 size=N/A time=00:13:41.48 bitrate=N/A speed=7.51x    frame=19780 fps=180 q=-0.0 size=N/A time=00:13:44.99 bitrate=N/A speed=7.51x    frame=19866 fps=180 q=-0.0 size=N/A time=00:13:48.57 bitrate=N/A speed=7.51x    frame=19964 fps=180 q=-0.0 size=N/A time=00:13:52.66 bitrate=N/A speed=7.51x    frame=20062 fps=180 q=-0.0 size=N/A time=00:13:56.75 bitrate=N/A speed=7.51x    frame=20155 fps=180 q=-0.0 size=N/A time=00:14:00.63 bitrate=N/A speed=7.51x    frame=20249 fps=180 q=-0.0 size=N/A time=00:14:04.55 bitrate=N/A speed=7.51x    frame=20349 fps=180 q=-0.0 size=N/A time=00:14:08.72 bitrate=N/A speed=7.51x    frame=20448 fps=180 q=-0.0 size=N/A time=00:14:12.85 bitrate=N/A speed=7.52x    frame=20547 fps=180 q=-0.0 size=N/A time=00:14:16.98 bitrate=N/A speed=7.52x    frame=20642 fps=180 q=-0.0 size=N/A time=00:14:20.94 bitrate=N/A speed=7.52x    frame=20726 fps=180 q=-0.0 size=N/A time=00:14:24.44 bitrate=N/A speed=7.52x    frame=20825 fps=180 q=-0.0 size=N/A time=00:14:28.57 bitrate=N/A speed=7.52x    frame=20905 fps=180 q=-0.0 size=N/A time=00:14:31.91 bitrate=N/A speed=7.51x    frame=21002 fps=180 q=-0.0 size=N/A time=00:14:35.95 bitrate=N/A speed=7.51x    frame=21087 fps=180 q=-0.0 size=N/A time=00:14:39.50 bitrate=N/A speed=7.51x    frame=21182 fps=180 q=-0.0 size=N/A time=00:14:43.46 bitrate=N/A speed=7.51x    frame=21271 fps=180 q=-0.0 size=N/A time=00:14:47.17 bitrate=N/A speed=7.51x    frame=21357 fps=180 q=-0.0 size=N/A time=00:14:50.76 bitrate=N/A speed=7.51x    frame=21444 fps=180 q=-0.0 size=N/A time=00:14:54.39 bitrate=N/A speed=7.51x    frame=21530 fps=180 q=-0.0 size=N/A time=00:14:57.98 bitrate=N/A speed=7.51x    frame=21620 fps=180 q=-0.0 size=N/A time=00:15:01.73 bitrate=N/A speed= 7.5x    frame=21708 fps=180 q=-0.0 size=N/A time=00:15:05.40 bitrate=N/A speed= 7.5x    frame=21801 fps=180 q=-0.0 size=N/A time=00:15:09.28 bitrate=N/A speed= 7.5x    frame=21888 fps=180 q=-0.0 size=N/A time=00:15:12.91 bitrate=N/A speed= 7.5x    frame=21975 fps=180 q=-0.0 size=N/A time=00:15:16.54 bitrate=N/A speed= 7.5x    frame=22066 fps=180 q=-0.0 size=N/A time=00:15:20.33 bitrate=N/A speed= 7.5x    frame=22147 fps=180 q=-0.0 size=N/A time=00:15:23.71 bitrate=N/A speed=7.49x    frame=22245 fps=180 q=-0.0 size=N/A time=00:15:27.80 bitrate=N/A speed= 7.5x    frame=22330 fps=180 q=-0.0 size=N/A time=00:15:31.34 bitrate=N/A speed=7.49x    frame=22424 fps=180 q=-0.0 size=N/A time=00:15:35.26 bitrate=N/A speed=7.49x    frame=22522 fps=180 q=-0.0 size=N/A time=00:15:39.35 bitrate=N/A speed= 7.5x    frame=22611 fps=180 q=-0.0 size=N/A time=00:15:43.06 bitrate=N/A speed=7.49x    frame=22720 fps=180 q=-0.0 size=N/A time=00:15:47.61 bitrate=N/A speed= 7.5x    frame=22821 fps=180 q=-0.0 size=N/A time=00:15:51.82 bitrate=N/A speed= 7.5x    frame=22909 fps=180 q=-0.0 size=N/A time=00:15:55.49 bitrate=N/A speed= 7.5x    frame=23003 fps=180 q=-0.0 size=N/A time=00:15:59.41 bitrate=N/A speed= 7.5x    frame=23098 fps=180 q=-0.0 size=N/A time=00:16:03.37 bitrate=N/A speed= 7.5x    frame=23183 fps=180 q=-0.0 size=N/A time=00:16:06.92 bitrate=N/A speed= 7.5x    frame=23270 fps=180 q=-0.0 size=N/A time=00:16:10.55 bitrate=N/A speed= 7.5x    frame=23356 fps=180 q=-0.0 size=N/A time=00:16:14.13 bitrate=N/A speed= 7.5x    frame=23440 fps=180 q=-0.0 size=N/A time=00:16:17.64 bitrate=N/A speed=7.49x    frame=23530 fps=180 q=-0.0 size=N/A time=00:16:21.39 bitrate=N/A speed=7.49x    frame=23620 fps=180 q=-0.0 size=N/A time=00:16:25.15 bitrate=N/A speed=7.49x    frame=23705 fps=180 q=-0.0 size=N/A time=00:16:28.69 bitrate=N/A speed=7.49x    frame=23793 fps=180 q=-0.0 size=N/A time=00:16:32.36 bitrate=N/A speed=7.49x    frame=23890 fps=180 q=-0.0 size=N/A time=00:16:36.41 bitrate=N/A speed=7.49x    frame=23984 fps=180 q=-0.0 size=N/A time=00:16:40.33 bitrate=N/A speed=7.49x    frame=24079 fps=180 q=-0.0 size=N/A time=00:16:44.29 bitrate=N/A speed=7.49x    frame=24178 fps=180 q=-0.0 size=N/A time=00:16:48.42 bitrate=N/A speed=7.49x    frame=24268 fps=180 q=-0.0 size=N/A time=00:16:52.17 bitrate=N/A speed=7.49x    frame=24368 fps=180 q=-0.0 size=N/A time=00:16:56.34 bitrate=N/A speed=7.49x    frame=24457 fps=180 q=-0.0 size=N/A time=00:17:00.06 bitrate=N/A speed=7.49x    frame=24560 fps=180 q=-0.0 size=N/A time=00:17:04.35 bitrate=N/A speed= 7.5x    frame=24656 fps=180 q=-0.0 size=N/A time=00:17:08.36 bitrate=N/A speed= 7.5x    frame=24753 fps=180 q=-0.0 size=N/A time=00:17:12.40 bitrate=N/A speed= 7.5x    frame=24850 fps=180 q=-0.0 size=N/A time=00:17:16.45 bitrate=N/A speed= 7.5x    frame=24942 fps=180 q=-0.0 size=N/A time=00:17:20.28 bitrate=N/A speed= 7.5x    frame=25040 fps=180 q=-0.0 size=N/A time=00:17:24.37 bitrate=N/A speed= 7.5x    frame=25136 fps=180 q=-0.0 size=N/A time=00:17:28.38 bitrate=N/A speed= 7.5x    frame=25235 fps=180 q=-0.0 size=N/A time=00:17:32.50 bitrate=N/A speed= 7.5x    frame=25333 fps=180 q=-0.0 size=N/A time=00:17:36.59 bitrate=N/A speed= 7.5x    frame=25431 fps=180 q=-0.0 size=N/A time=00:17:40.68 bitrate=N/A speed=7.51x    frame=25523 fps=180 q=-0.0 size=N/A time=00:17:44.52 bitrate=N/A speed=7.51x    frame=25622 fps=180 q=-0.0 size=N/A time=00:17:48.65 bitrate=N/A speed=7.51x    frame=25717 fps=180 q=-0.0 size=N/A time=00:17:52.61 bitrate=N/A speed=7.51x    frame=25816 fps=180 q=-0.0 size=N/A time=00:17:56.74 bitrate=N/A speed=7.51x    frame=25911 fps=180 q=-0.0 size=N/A time=00:18:00.70 bitrate=N/A speed=7.51x    frame=26010 fps=180 q=-0.0 size=N/A time=00:18:04.83 bitrate=N/A speed=7.51x    frame=26108 fps=180 q=-0.0 size=N/A time=00:18:08.92 bitrate=N/A speed=7.51x    frame=26205 fps=180 q=-0.0 size=N/A time=00:18:12.96 bitrate=N/A speed=7.51x    frame=26301 fps=180 q=-0.0 size=N/A time=00:18:16.97 bitrate=N/A speed=7.52x    frame=26398 fps=180 q=-0.0 size=N/A time=00:18:21.01 bitrate=N/A speed=7.52x    frame=26496 fps=180 q=-0.0 size=N/A time=00:18:25.10 bitrate=N/A speed=7.52x    frame=26590 fps=180 q=-0.0 size=N/A time=00:18:29.02 bitrate=N/A speed=7.52x    frame=26680 fps=180 q=-0.0 size=N/A time=00:18:32.77 bitrate=N/A speed=7.52x    frame=26771 fps=180 q=-0.0 size=N/A time=00:18:36.57 bitrate=N/A speed=7.52x    frame=26851 fps=180 q=-0.0 size=N/A time=00:18:39.91 bitrate=N/A speed=7.51x    frame=26945 fps=180 q=-0.0 size=N/A time=00:18:43.83 bitrate=N/A speed=7.51x    frame=27055 fps=180 q=-0.0 size=N/A time=00:18:48.41 bitrate=N/A speed=7.52x    frame=27144 fps=180 q=-0.0 size=N/A time=00:18:52.13 bitrate=N/A speed=7.52x    frame=27240 fps=180 q=-0.0 size=N/A time=00:18:56.13 bitrate=N/A speed=7.52x    frame=27338 fps=180 q=-0.0 size=N/A time=00:19:00.22 bitrate=N/A speed=7.52x    frame=27439 fps=180 q=-0.0 size=N/A time=00:19:04.43 bitrate=N/A speed=7.52x    frame=27538 fps=180 q=-0.0 size=N/A time=00:19:08.56 bitrate=N/A speed=7.52x    frame=27635 fps=180 q=-0.0 size=N/A time=00:19:12.60 bitrate=N/A speed=7.52x    frame=27731 fps=180 q=-0.0 size=N/A time=00:19:16.61 bitrate=N/A speed=7.53x    frame=27829 fps=180 q=-0.0 size=N/A time=00:19:20.70 bitrate=N/A speed=7.53x    frame=27926 fps=180 q=-0.0 size=N/A time=00:19:24.74 bitrate=N/A speed=7.53x    frame=28023 fps=181 q=-0.0 size=N/A time=00:19:28.79 bitrate=N/A speed=7.53x    frame=28119 fps=181 q=-0.0 size=N/A time=00:19:32.79 bitrate=N/A speed=7.53x    frame=28212 fps=181 q=-0.0 size=N/A time=00:19:36.67 bitrate=N/A speed=7.53x    frame=28309 fps=181 q=-0.0 size=N/A time=00:19:40.72 bitrate=N/A speed=7.53x    frame=28405 fps=181 q=-0.0 size=N/A time=00:19:44.72 bitrate=N/A speed=7.53x    frame=28494 fps=181 q=-0.0 size=N/A time=00:19:48.43 bitrate=N/A speed=7.53x    frame=28593 fps=181 q=-0.0 size=N/A time=00:19:52.56 bitrate=N/A speed=7.53x    frame=28683 fps=181 q=-0.0 size=N/A time=00:19:56.32 bitrate=N/A speed=7.53x    frame=28778 fps=181 q=-0.0 size=N/A time=00:20:00.28 bitrate=N/A speed=7.53x    frame=28876 fps=181 q=-0.0 size=N/A time=00:20:04.36 bitrate=N/A speed=7.53x    frame=28963 fps=181 q=-0.0 size=N/A time=00:20:07.99 bitrate=N/A speed=7.53x    frame=29043 fps=180 q=-0.0 size=N/A time=00:20:11.33 bitrate=N/A speed=7.53x    frame=29135 fps=180 q=-0.0 size=N/A time=00:20:15.17 bitrate=N/A speed=7.53x    frame=29228 fps=180 q=-0.0 size=N/A time=00:20:19.05 bitrate=N/A speed=7.53x    frame=29316 fps=180 q=-0.0 size=N/A time=00:20:22.72 bitrate=N/A speed=7.53x    frame=29408 fps=180 q=-0.0 size=N/A time=00:20:26.55 bitrate=N/A speed=7.53x    frame=29490 fps=180 q=-0.0 size=N/A time=00:20:29.97 bitrate=N/A speed=7.52x    frame=29587 fps=180 q=-0.0 size=N/A time=00:20:34.02 bitrate=N/A speed=7.52x    frame=29674 fps=180 q=-0.0 size=N/A time=00:20:37.65 bitrate=N/A speed=7.52x    frame=29779 fps=180 q=-0.0 size=N/A time=00:20:42.03 bitrate=N/A speed=7.53x    frame=29867 fps=180 q=-0.0 size=N/A time=00:20:45.70 bitrate=N/A speed=7.52x    frame=29969 fps=180 q=-0.0 size=N/A time=00:20:49.95 bitrate=N/A speed=7.53x    frame=30062 fps=180 q=-0.0 size=N/A time=00:20:53.83 bitrate=N/A speed=7.53x    frame=30144 fps=180 q=-0.0 size=N/A time=00:20:57.25 bitrate=N/A speed=7.52x    frame=30257 fps=181 q=-0.0 size=N/A time=00:21:01.96 bitrate=N/A speed=7.53x    frame=30347 fps=181 q=-0.0 size=N/A time=00:21:05.72 bitrate=N/A speed=7.53x    frame=30447 fps=181 q=-0.0 size=N/A time=00:21:09.89 bitrate=N/A speed=7.53x    frame=30538 fps=181 q=-0.0 size=N/A time=00:21:13.68 bitrate=N/A speed=7.53x    frame=30636 fps=181 q=-0.0 size=N/A time=00:21:17.77 bitrate=N/A speed=7.53x    frame=30735 fps=181 q=-0.0 size=N/A time=00:21:21.90 bitrate=N/A speed=7.53x    frame=30827 fps=181 q=-0.0 size=N/A time=00:21:25.74 bitrate=N/A speed=7.53x    frame=30926 fps=181 q=-0.0 size=N/A time=00:21:29.87 bitrate=N/A speed=7.53x    frame=31014 fps=181 q=-0.0 size=N/A time=00:21:33.54 bitrate=N/A speed=7.53x    frame=31112 fps=181 q=-0.0 size=N/A time=00:21:37.62 bitrate=N/A speed=7.53x    frame=31206 fps=181 q=-0.0 size=N/A time=00:21:41.55 bitrate=N/A speed=7.53x    frame=31293 fps=181 q=-0.0 size=N/A time=00:21:45.17 bitrate=N/A speed=7.53x    frame=31400 fps=181 q=-0.0 size=N/A time=00:21:49.64 bitrate=N/A speed=7.54x    frame=31497 fps=181 q=-0.0 size=N/A time=00:21:53.68 bitrate=N/A speed=7.54x    frame=31579 fps=181 q=-0.0 size=N/A time=00:21:57.10 bitrate=N/A speed=7.53x    frame=31687 fps=181 q=-0.0 size=N/A time=00:22:01.61 bitrate=N/A speed=7.54x    frame=31782 fps=181 q=-0.0 size=N/A time=00:22:05.57 bitrate=N/A speed=7.54x    frame=31877 fps=181 q=-0.0 size=N/A time=00:22:09.53 bitrate=N/A speed=7.54x    frame=31970 fps=181 q=-0.0 size=N/A time=00:22:13.41 bitrate=N/A speed=7.54x    frame=32052 fps=181 q=-0.0 size=N/A time=00:22:16.83 bitrate=N/A speed=7.54x    frame=32159 fps=181 q=-0.0 size=N/A time=00:22:21.29 bitrate=N/A speed=7.54x    frame=32260 fps=181 q=-0.0 size=N/A time=00:22:25.51 bitrate=N/A speed=7.54x    frame=32355 fps=181 q=-0.0 size=N/A time=00:22:29.47 bitrate=N/A speed=7.54x    frame=32453 fps=181 q=-0.0 size=N/A time=00:22:33.56 bitrate=N/A speed=7.54x    frame=32537 fps=181 q=-0.0 size=N/A time=00:22:37.06 bitrate=N/A speed=7.54x    frame=32637 fps=181 q=-0.0 size=N/A time=00:22:41.23 bitrate=N/A speed=7.54x    frame=32723 fps=181 q=-0.0 size=N/A time=00:22:44.82 bitrate=N/A speed=7.54x    frame=32825 fps=181 q=-0.0 size=N/A time=00:22:49.07 bitrate=N/A speed=7.54x    frame=32915 fps=181 q=-0.0 size=N/A time=00:22:52.82 bitrate=N/A speed=7.54x    frame=33016 fps=181 q=-0.0 size=N/A time=00:22:57.04 bitrate=N/A speed=7.54x    frame=33112 fps=181 q=-0.0 size=N/A time=00:23:01.04 bitrate=N/A speed=7.54x    frame=33205 fps=181 q=-0.0 size=N/A time=00:23:04.92 bitrate=N/A speed=7.54x    frame=33300 fps=181 q=-0.0 size=N/A time=00:23:08.88 bitrate=N/A speed=7.54x    frame=33397 fps=181 q=-0.0 size=N/A time=00:23:12.93 bitrate=N/A speed=7.54x    frame=33492 fps=181 q=-0.0 size=N/A time=00:23:16.89 bitrate=N/A speed=7.54x    frame=33577 fps=181 q=-0.0 size=N/A time=00:23:20.44 bitrate=N/A speed=7.54x    frame=33672 fps=181 q=-0.0 size=N/A time=00:23:24.40 bitrate=N/A speed=7.54x    frame=33771 fps=181 q=-0.0 size=N/A time=00:23:28.53 bitrate=N/A speed=7.54x    frame=33870 fps=181 q=-0.0 size=N/A time=00:23:32.66 bitrate=N/A speed=7.54x    frame=33958 fps=181 q=-0.0 size=N/A time=00:23:36.33 bitrate=N/A speed=7.54x    frame=34057 fps=181 q=-0.0 size=N/A time=00:23:40.46 bitrate=N/A speed=7.55x    frame=34155 fps=181 q=-0.0 size=N/A time=00:23:44.54 bitrate=N/A speed=7.55x    frame=34249 fps=181 q=-0.0 size=N/A time=00:23:48.46 bitrate=N/A speed=7.55x    frame=34346 fps=181 q=-0.0 size=N/A time=00:23:52.51 bitrate=N/A speed=7.55x    frame=34441 fps=181 q=-0.0 size=N/A time=00:23:56.47 bitrate=N/A speed=7.55x    [Parsed_ssim_10 @ 0000022d238bec80] SSIM Y:0.993315 (21.749178) U:0.994524 (22.615471) V:0.994692 (22.750838) All:0.993746 (22.038595)
[out#0/null @ 0000022d1d9e4dc0] video:14805KiB audio:269464KiB subtitle:0KiB other streams:0KiB global headers:0KiB muxing overhead: unknown
frame=34456 fps=181 q=-0.0 Lsize=N/A time=00:23:57.10 bitrate=N/A speed=7.55x    
